<mxfile host="app.diagrams.net" modified="2020-12-21T17:11:08.031Z" agent="5.0 (Windows NT 10.0; Win64; x64) AppleWebKit/537.36 (KHTML, like Gecko) Chrome/87.0.4280.101 Safari/537.36" etag="rD3MOauLGt23r1N2EPqT" version="14.1.1" type="github">
  <diagram id="DqOiqoSyYc-jHBsAB0q9" name="Page-1">
    <mxGraphModel dx="1178" dy="644" grid="1" gridSize="10" guides="1" tooltips="1" connect="1" arrows="1" fold="1" page="1" pageScale="1" pageWidth="850" pageHeight="1100" math="0" shadow="0">
      <root>
        <mxCell id="0" />
        <mxCell id="1" parent="0" />
        <mxCell id="j2drVOKHEnY01O1bSISk-1" value="" style="rounded=0;whiteSpace=wrap;html=1;" parent="1" vertex="1">
          <mxGeometry x="295" y="80" width="260" height="60" as="geometry" />
        </mxCell>
        <mxCell id="j2drVOKHEnY01O1bSISk-3" value="Dragun Utility Contract" style="text;html=1;align=center;verticalAlign=middle;resizable=0;points=[];autosize=1;" parent="1" vertex="1">
          <mxGeometry x="360" y="80" width="130" height="20" as="geometry" />
        </mxCell>
        <mxCell id="j2drVOKHEnY01O1bSISk-4" value="Unique 721 Contract&lt;br&gt;Address" style="text;html=1;strokeColor=none;fillColor=none;align=center;verticalAlign=middle;whiteSpace=wrap;rounded=0;" parent="1" vertex="1">
          <mxGeometry x="350" y="100" width="162" height="40" as="geometry" />
        </mxCell>
        <mxCell id="j2drVOKHEnY01O1bSISk-5" value="" style="rounded=0;whiteSpace=wrap;html=1;" parent="1" vertex="1">
          <mxGeometry x="470" y="240" width="260" height="60" as="geometry" />
        </mxCell>
        <mxCell id="j2drVOKHEnY01O1bSISk-6" value="NFT Token A" style="text;html=1;strokeColor=none;fillColor=none;align=center;verticalAlign=middle;whiteSpace=wrap;rounded=0;" parent="1" vertex="1">
          <mxGeometry x="570" y="260" width="80" as="geometry" />
        </mxCell>
        <mxCell id="j2drVOKHEnY01O1bSISk-7" value="&lt;i&gt;Unique Token Address&lt;/i&gt;" style="text;html=1;strokeColor=none;fillColor=none;align=center;verticalAlign=middle;whiteSpace=wrap;rounded=0;" parent="1" vertex="1">
          <mxGeometry x="542.5" y="270" width="125" height="20" as="geometry" />
        </mxCell>
        <mxCell id="j2drVOKHEnY01O1bSISk-8" value="" style="rounded=0;whiteSpace=wrap;html=1;" parent="1" vertex="1">
          <mxGeometry x="80" y="240" width="260" height="60" as="geometry" />
        </mxCell>
        <mxCell id="j2drVOKHEnY01O1bSISk-9" value="NFT Token B" style="text;html=1;strokeColor=none;fillColor=none;align=center;verticalAlign=middle;whiteSpace=wrap;rounded=0;" parent="1" vertex="1">
          <mxGeometry x="180" y="260" width="80" as="geometry" />
        </mxCell>
        <mxCell id="j2drVOKHEnY01O1bSISk-10" value="&lt;i&gt;Unique Token Address&lt;/i&gt;" style="text;html=1;strokeColor=none;fillColor=none;align=center;verticalAlign=middle;whiteSpace=wrap;rounded=0;" parent="1" vertex="1">
          <mxGeometry x="152.5" y="270" width="125" height="20" as="geometry" />
        </mxCell>
        <mxCell id="j2drVOKHEnY01O1bSISk-11" value="" style="endArrow=none;html=1;exitX=0.551;exitY=-0.003;exitDx=0;exitDy=0;exitPerimeter=0;" parent="1" source="j2drVOKHEnY01O1bSISk-8" target="j2drVOKHEnY01O1bSISk-12" edge="1">
          <mxGeometry width="50" height="50" relative="1" as="geometry">
            <mxPoint x="270" y="190" as="sourcePoint" />
            <mxPoint x="320" y="140" as="targetPoint" />
          </mxGeometry>
        </mxCell>
        <mxCell id="j2drVOKHEnY01O1bSISk-12" value="User 1" style="text;html=1;strokeColor=none;fillColor=none;align=center;verticalAlign=middle;whiteSpace=wrap;rounded=0;" parent="1" vertex="1">
          <mxGeometry x="277.5" y="160" width="40" height="20" as="geometry" />
        </mxCell>
        <mxCell id="j2drVOKHEnY01O1bSISk-13" value="" style="endArrow=none;html=1;" parent="1" edge="1">
          <mxGeometry width="50" height="50" relative="1" as="geometry">
            <mxPoint x="300" y="160" as="sourcePoint" />
            <mxPoint x="320" y="140" as="targetPoint" />
          </mxGeometry>
        </mxCell>
        <mxCell id="j2drVOKHEnY01O1bSISk-15" value="User 2" style="text;html=1;strokeColor=none;fillColor=none;align=center;verticalAlign=middle;whiteSpace=wrap;rounded=0;direction=west;" parent="1" vertex="1">
          <mxGeometry x="530" y="160" width="40" height="20" as="geometry" />
        </mxCell>
        <mxCell id="j2drVOKHEnY01O1bSISk-17" value="" style="endArrow=none;html=1;exitX=0.409;exitY=-0.043;exitDx=0;exitDy=0;exitPerimeter=0;" parent="1" source="j2drVOKHEnY01O1bSISk-5" edge="1">
          <mxGeometry width="50" height="50" relative="1" as="geometry">
            <mxPoint x="595" y="240" as="sourcePoint" />
            <mxPoint x="555" y="180" as="targetPoint" />
          </mxGeometry>
        </mxCell>
        <mxCell id="j2drVOKHEnY01O1bSISk-18" value="" style="endArrow=none;html=1;" parent="1" edge="1">
          <mxGeometry width="50" height="50" relative="1" as="geometry">
            <mxPoint x="542.5" y="160" as="sourcePoint" />
            <mxPoint x="529.5" y="140" as="targetPoint" />
          </mxGeometry>
        </mxCell>
        <mxCell id="j2drVOKHEnY01O1bSISk-20" value="" style="endArrow=none;dashed=1;html=1;dashPattern=1 3;strokeWidth=2;entryX=0.231;entryY=1.019;entryDx=0;entryDy=0;entryPerimeter=0;" parent="1" target="j2drVOKHEnY01O1bSISk-8" edge="1">
          <mxGeometry width="50" height="50" relative="1" as="geometry">
            <mxPoint x="140" y="330" as="sourcePoint" />
            <mxPoint x="190" y="300" as="targetPoint" />
          </mxGeometry>
        </mxCell>
        <mxCell id="j2drVOKHEnY01O1bSISk-21" value="" style="endArrow=none;dashed=1;html=1;dashPattern=1 3;strokeWidth=2;entryX=0.231;entryY=1.019;entryDx=0;entryDy=0;entryPerimeter=0;" parent="1" edge="1">
          <mxGeometry width="50" height="50" relative="1" as="geometry">
            <mxPoint x="200" y="328.86" as="sourcePoint" />
            <mxPoint x="200.06000000000006" y="300" as="targetPoint" />
          </mxGeometry>
        </mxCell>
        <mxCell id="j2drVOKHEnY01O1bSISk-22" value="" style="endArrow=none;dashed=1;html=1;dashPattern=1 3;strokeWidth=2;entryX=0.231;entryY=1.019;entryDx=0;entryDy=0;entryPerimeter=0;" parent="1" edge="1">
          <mxGeometry width="50" height="50" relative="1" as="geometry">
            <mxPoint x="297.3" y="328.86" as="sourcePoint" />
            <mxPoint x="297.35999999999996" y="300" as="targetPoint" />
          </mxGeometry>
        </mxCell>
        <mxCell id="j2drVOKHEnY01O1bSISk-23" value="NFT&lt;br&gt;&lt;i&gt;UNIQUE TOKEN&lt;br&gt;&lt;/i&gt;ID" style="shape=umlActor;verticalLabelPosition=bottom;verticalAlign=top;html=1;outlineConnect=0;" parent="1" vertex="1">
          <mxGeometry x="130" y="340" width="10" height="30" as="geometry" />
        </mxCell>
        <mxCell id="j2drVOKHEnY01O1bSISk-24" value="NFT&lt;br&gt;&lt;i&gt;UNIQUE TOKEN&lt;br&gt;&lt;/i&gt;ID" style="shape=umlActor;verticalLabelPosition=bottom;verticalAlign=top;html=1;outlineConnect=0;" parent="1" vertex="1">
          <mxGeometry x="200" y="330" width="10" height="30" as="geometry" />
        </mxCell>
        <mxCell id="j2drVOKHEnY01O1bSISk-25" value="NFT&lt;br&gt;&lt;i&gt;UNIQUE TOKEN&lt;br&gt;&lt;/i&gt;ID" style="shape=umlActor;verticalLabelPosition=bottom;verticalAlign=top;html=1;outlineConnect=0;" parent="1" vertex="1">
          <mxGeometry x="292.5" y="340" width="10" height="30" as="geometry" />
        </mxCell>
        <mxCell id="j2drVOKHEnY01O1bSISk-26" value="NFT&lt;br&gt;&lt;i&gt;UNIQUE TOKEN&lt;br&gt;&lt;/i&gt;ID" style="shape=umlActor;verticalLabelPosition=bottom;verticalAlign=top;html=1;outlineConnect=0;" parent="1" vertex="1">
          <mxGeometry x="520" y="340" width="10" height="30" as="geometry" />
        </mxCell>
        <mxCell id="j2drVOKHEnY01O1bSISk-27" value="" style="endArrow=none;dashed=1;html=1;dashPattern=1 3;strokeWidth=2;entryX=0.231;entryY=1.019;entryDx=0;entryDy=0;entryPerimeter=0;" parent="1" edge="1">
          <mxGeometry width="50" height="50" relative="1" as="geometry">
            <mxPoint x="521.21" y="330" as="sourcePoint" />
            <mxPoint x="521.27" y="301.14" as="targetPoint" />
          </mxGeometry>
        </mxCell>
        <mxCell id="j2drVOKHEnY01O1bSISk-28" value="" style="endArrow=none;dashed=1;html=1;dashPattern=1 3;strokeWidth=2;entryX=0.231;entryY=1.019;entryDx=0;entryDy=0;entryPerimeter=0;" parent="1" edge="1">
          <mxGeometry width="50" height="50" relative="1" as="geometry">
            <mxPoint x="581.21" y="328.86" as="sourcePoint" />
            <mxPoint x="581.27" y="300" as="targetPoint" />
          </mxGeometry>
        </mxCell>
        <mxCell id="j2drVOKHEnY01O1bSISk-29" value="" style="endArrow=none;dashed=1;html=1;dashPattern=1 3;strokeWidth=2;entryX=0.231;entryY=1.019;entryDx=0;entryDy=0;entryPerimeter=0;" parent="1" edge="1">
          <mxGeometry width="50" height="50" relative="1" as="geometry">
            <mxPoint x="678.51" y="328.86" as="sourcePoint" />
            <mxPoint x="678.5699999999999" y="300" as="targetPoint" />
          </mxGeometry>
        </mxCell>
        <mxCell id="j2drVOKHEnY01O1bSISk-30" value="NFT&lt;br&gt;&lt;i&gt;UNIQUE TOKEN&lt;br&gt;&lt;/i&gt;ID" style="shape=umlActor;verticalLabelPosition=bottom;verticalAlign=top;html=1;outlineConnect=0;" parent="1" vertex="1">
          <mxGeometry x="580" y="330" width="10" height="30" as="geometry" />
        </mxCell>
        <mxCell id="j2drVOKHEnY01O1bSISk-31" value="NFT&lt;br&gt;&lt;i&gt;UNIQUE TOKEN&lt;br&gt;&lt;/i&gt;ID" style="shape=umlActor;verticalLabelPosition=bottom;verticalAlign=top;html=1;outlineConnect=0;" parent="1" vertex="1">
          <mxGeometry x="680" y="330" width="10" height="30" as="geometry" />
        </mxCell>
        <mxCell id="WHHFlCE1nlVrn1xIU7CA-1" value="" style="endArrow=none;dashed=1;html=1;entryX=1;entryY=1;entryDx=0;entryDy=0;" edge="1" parent="1" target="j2drVOKHEnY01O1bSISk-8">
          <mxGeometry width="50" height="50" relative="1" as="geometry">
            <mxPoint x="370" y="430" as="sourcePoint" />
            <mxPoint x="420" y="380" as="targetPoint" />
          </mxGeometry>
        </mxCell>
        <mxCell id="WHHFlCE1nlVrn1xIU7CA-2" value="" style="endArrow=none;dashed=1;html=1;entryX=1;entryY=1;entryDx=0;entryDy=0;" edge="1" parent="1">
          <mxGeometry width="50" height="50" relative="1" as="geometry">
            <mxPoint x="450" y="420" as="sourcePoint" />
            <mxPoint x="470" y="300" as="targetPoint" />
          </mxGeometry>
        </mxCell>
        <mxCell id="WHHFlCE1nlVrn1xIU7CA-3" value="NFT&lt;br&gt;&lt;i&gt;UNIQUE TOKEN&lt;br&gt;&lt;/i&gt;ID" style="shape=umlActor;verticalLabelPosition=bottom;verticalAlign=top;html=1;outlineConnect=0;" vertex="1" parent="1">
          <mxGeometry x="380" y="440" width="10" height="30" as="geometry" />
        </mxCell>
        <mxCell id="WHHFlCE1nlVrn1xIU7CA-5" value="Eligible for benefits on both as NFTs have same &quot;NFT Dragun&quot; Contract Address" style="text;html=1;strokeColor=none;fillColor=none;align=center;verticalAlign=middle;whiteSpace=wrap;rounded=0;" vertex="1" parent="1">
          <mxGeometry x="328.5" y="500" width="205" height="100" as="geometry" />
        </mxCell>
        <mxCell id="WHHFlCE1nlVrn1xIU7CA-6" value="" style="endArrow=none;html=1;entryX=0.25;entryY=1;entryDx=0;entryDy=0;" edge="1" parent="1" target="j2drVOKHEnY01O1bSISk-4">
          <mxGeometry width="50" height="50" relative="1" as="geometry">
            <mxPoint x="431" y="440" as="sourcePoint" />
            <mxPoint x="470" y="300" as="targetPoint" />
          </mxGeometry>
        </mxCell>
        <mxCell id="WHHFlCE1nlVrn1xIU7CA-9" style="edgeStyle=orthogonalEdgeStyle;rounded=0;orthogonalLoop=1;jettySize=auto;html=1;exitX=0;exitY=0.3333333333333333;exitDx=0;exitDy=0;exitPerimeter=0;" edge="1" parent="1" source="WHHFlCE1nlVrn1xIU7CA-7">
          <mxGeometry relative="1" as="geometry">
            <mxPoint x="490" y="450.2857142857142" as="targetPoint" />
          </mxGeometry>
        </mxCell>
        <mxCell id="WHHFlCE1nlVrn1xIU7CA-7" value="NFT&lt;br&gt;&lt;i&gt;UNIQUE TOKEN&lt;br&gt;&lt;/i&gt;ID" style="shape=umlActor;verticalLabelPosition=bottom;verticalAlign=top;html=1;outlineConnect=0;" vertex="1" parent="1">
          <mxGeometry x="490" y="440" width="10" height="30" as="geometry" />
        </mxCell>
      </root>
    </mxGraphModel>
  </diagram>
</mxfile>
